<?xml version="1.0" encoding="utf-8"?>
<!DOCTYPE svg PUBLIC "-//W3C//DTD SVG 1.1//EN" "http://www.w3.org/Graphics/SVG/1.1/DTD/svg11.dtd">
<svg version="1.1" xmlns="http://www.w3.org/2000/svg" viewBox="0 0 276 316">
	<style>
		path{
			fill: #000000;
		}
	</style>
	<path d="M116.21,59.26c0-10.922,6.669-15.767,14.552-17.59v34.572
		C122.274,75.632,116.21,68.358,116.21,59.26 M141.679,41.67c7.884,1.824,14.557,6.668,14.557,17.59
		c0,10.913-6.673,15.156-14.557,17.586V41.67z M232.043,271.52c-8.493,15.766-25.469,27.288-47.913,27.893
		c-24.255,0.606-41.241-15.161-42.451-24.863V131.428h61.861v-8.493h-61.861V83.52c11.519-1.219,21.836-10.318,21.836-24.26
		c0-13.951-10.317-23.044-21.836-24.264V4.069h-10.917v30.928c-11.518,1.219-21.83,10.313-21.83,24.264
		c0,13.942,10.313,23.041,21.83,24.26v39.415h-61.25v8.493h61.25v143.121c-1.21,9.702-18.195,25.47-42.45,24.863
		c-22.444-0.604-39.42-12.127-47.913-27.893l-7.273,4.244c8.488,17.591,27.288,33.356,55.796,32.752
		c19.401,0,42.451-10.313,47.299-22.439c4.854,12.127,27.898,22.439,47.309,22.439c28.498,0.604,47.299-15.161,55.787-32.752
		L232.043,271.52z"/>
	<path d="M249.033,217.87c5.394,0,10.113-2.212,14.159-6.637
		c4.04-4.428,6.058-10.856,6.058-19.285c0-6.747-1.24-12.247-3.739-16.496c-2.493-4.253-5.774-7.546-9.837-9.888
		c-4.064-2.336-9.478-3.505-16.232-3.505v2.129c4.059,0.153,7.504,1.271,10.321,3.362c2.817,2.082,4.94,4.979,6.364,8.678
		c1.432,3.699,2.142,9.032,2.142,16.007c0,8.358-1.094,14.034-3.288,17.045c-2.198,3.007-4.793,4.507-7.813,4.507
		c-5.393,0-9.537-4.285-12.433-12.875c2.651-5.896,3.981-11.573,3.981-17.008c0-7.893-1.828-11.842-5.495-11.842
		c-3.658,0-5.487,4.268-5.487,12.816c0,5.628,1.266,10.977,3.801,16.033c-1.492,3.875-2.6,6.434-3.319,7.676
		c-0.722,1.242-1.981,2.424-3.77,3.533c-1.791,1.117-3.63,1.666-5.522,1.666c-2.938,0-5.487-1.605-7.639-4.826
		c-2.151-3.218-3.224-9.18-3.224-17.876c0-8.58,1.644-15.212,4.945-19.886c3.302-4.673,7.926-7.011,13.878-7.011v-2.129
		c-6.756,0-12.164,1.15-16.232,3.445c-4.063,2.3-7.356,5.606-9.864,9.92c-2.518,4.31-3.772,9.878-3.772,16.699
		c0,8.313,2.105,14.682,6.308,19.109c4.202,4.425,8.82,6.637,13.85,6.637c7.201,0,12.549-3.791,16.049-11.383
		C236.361,214.079,241.635,217.87,249.033,217.87 M46.887,193.842c-3.362,13.722-8.525,20.584-15.517,20.584
		c-8.05,0-12.071-7.782-12.071-23.341c0-16.399,4.207-24.601,12.621-24.601c3.727,0,6.922,1.736,9.592,5.204
		c2.664,3.464,5.075,8.285,7.236,14.455L46.887,193.842z M50.609,179.937c-2.346-6.321-5.034-10.885-8.063-13.684
		c-3.039-2.794-6.928-4.193-11.656-4.193c-6.715,0-12.469,2.452-17.249,7.357c-4.779,4.904-7.171,11.763-7.171,20.578
		c0,8.965,2.179,15.854,6.553,20.666c4.368,4.809,10.252,7.209,17.655,7.209c10.852,0,18.667-4.192,23.451-12.589
		c1.386,5.099,2.669,8.47,3.866,10.118c1.191,1.649,3.006,2.471,5.444,2.471c2.947,0,5.32-1.371,7.14-4.109
		c1.814-2.739,2.793-6.333,2.932-10.774h-2.484c-0.133,4.752-2.276,7.125-6.414,7.125c-3.492,0-6.161-3.523-7.999-10.575
		c0.508-1.149,1.45-4.253,2.827-9.311l7.103-26.614H54.821L50.609,179.937z"/>
</svg>
